Coordinates
version=1
nRows=32
nColumns=18
inDegrees=yes

Units are S.I. units (second, meters, Newtons, ...)
If the header above contains a line with 'inDegrees', this indicates whether rotational values are in degrees (yes) or radians (no).

endheader
time	ground_thorax_rot_x	ground_thorax_rot_y	ground_thorax_rot_z	ground_thorax_tx	ground_thorax_ty	ground_thorax_tz	clav_prot	clav_elev	scapula_abduction	scapula_elevation	scapula_upward_rot	scapula_winging	plane_elv	shoulder_elv	axial_rot	elbow_flexion	pro_sup
      0.00000000	      0.51728761	     -7.18513610	    -11.34509420	     -0.02136666	      0.00910493	      0.01365936	    -18.17904071	    -14.10883815	    -15.21333083	    -11.10751955	     13.76543136	     18.77410525	    -26.00000000	     19.79213785	     42.34136551	     25.33745090	   -176.48466624
      0.02000000	      0.51728761	     -6.99944372	    -11.36787580	     -0.02113609	      0.00900963	      0.01379883	    -18.39542454	    -14.09894809	    -15.55765301	    -11.12683317	     13.82918707	     18.80345669	    -26.00000000	     19.60139778	     42.83851372	     25.26773808	   -176.53486010
      0.04000000	      0.51728761	     -6.85697589	    -11.43186197	     -0.02089051	      0.00885355	      0.01391871	    -18.53176639	    -14.08150598	    -15.76223267	    -11.13651110	     13.89227161	     18.81066216	    -26.00000000	     19.45404616	     42.98568039	     25.25086968	   -176.51908247
      0.06000000	      0.51728761	     -6.63263154	    -11.44877046	     -0.02076896	      0.00879016	      0.01401367	    -18.72690365	    -14.09345853	    -16.11713831	    -11.15093632	     13.87655036	     18.86246999	    -26.00000000	     19.35464868	     43.11400686	     25.25887362	   -176.53905130
      0.08000000	      0.51728761	     -6.49101333	    -11.46331062	     -0.02067111	      0.00868504	      0.01412511	    -18.84792879	    -14.07361713	    -16.33297578	    -11.14417515	     13.88453844	     18.87699794	    -26.00000000	     19.25339728	     43.20828313	     25.26010125	   -176.55612297
      0.10000000	      0.51728761	     -6.34045544	    -11.48166843	     -0.02063882	      0.00864864	      0.01420733	    -18.97795906	    -14.09585084	    -16.56699337	    -11.16388289	     13.87191017	     18.91801775	    -26.00000000	     19.19031847	     43.30159189	     25.27553605	   -176.58700272
      0.12000000	      0.51728761	     -6.21070526	    -11.50409518	     -0.02067776	      0.00862328	      0.01428279	    -19.07804730	    -14.12006975	    -16.75073454	    -11.18237367	     13.85422040	     18.95440770	    -26.00000000	     19.14672245	     43.33589676	     25.29993891	   -176.53238592
      0.14000000	      0.51728761	     -6.15792373	    -11.50003913	     -0.02080782	      0.00859239	      0.01435499	    -19.10469046	    -14.11165999	    -16.80202264	    -11.17689894	     13.85212026	     18.95632297	    -26.00000000	     19.11065966	     43.40396028	     25.31024229	   -176.55294914
      0.16000000	      0.51728761	     -6.02003578	    -11.47550888	     -0.02107344	      0.00862163	      0.01440227	    -19.20378819	    -14.13320494	    -17.00706687	    -11.18505128	     13.80165622	     18.99865269	    -26.00000000	     19.10440714	     43.43078903	     25.34927558	   -176.63733608
      0.18000000	      0.51728761	     -6.05030980	    -11.46525840	     -0.02133436	      0.00865540	      0.01448831	    -19.15138975	    -14.14347688	    -16.91199785	    -11.18958099	     13.79971405	     18.99338548	    -26.00000000	     19.11276763	     43.49914927	     25.33721206	   -176.82196867
      0.20000000	      0.51728761	     -5.92820750	    -11.39753756	     -0.02175668	      0.00861715	      0.01449476	    -19.24302637	    -14.09231425	    -17.11231020	    -11.14790728	     13.76720135	     18.99488818	    -26.00000000	     19.09451637	     43.80133788	     25.45133714	   -176.80824004
      0.22000000	      0.51728761	     -6.02616277	    -11.40001261	     -0.02213112	      0.00871328	      0.01457377	    -19.11843731	    -14.14176562	    -16.88717753	    -11.17425852	     13.75071155	     18.99714827	    -26.00000000	     19.15687022	     43.51700624	     25.39257467	   -176.77935969
      0.24000000	      0.51728761	     -5.97917207	    -11.38367232	     -0.02256463	      0.00880031	      0.01461743	    -19.14262221	    -14.18686324	    -16.94782419	    -11.19766578	     13.70613099	     19.03417185	    -26.00000000	     19.20017902	     43.47966128	     25.43736332	   -176.66185145
      0.26000000	      0.51728761	     -6.06978150	    -11.43949120	     -0.02290080	      0.00892490	      0.01473277	    -19.08908067	    -14.30291575	    -16.81687470	    -11.28211380	     13.70953853	     19.07873539	    -26.00000000	     19.28302145	     43.40788697	     25.48586969	   -176.66697204
      0.28000000	      0.51728761	     -6.06990284	    -11.47491870	     -0.02327547	      0.00900525	      0.01478885	    -19.08810900	    -14.37780788	    -16.79543403	    -11.33711230	     13.70708470	     19.11563838	    -26.00000000	     19.32957425	     43.39503191	     25.50674070	   -176.65993410
      0.30000000	      0.51728761	     -5.98354688	    -11.30271243	     -0.02404916	      0.00904738	      0.01473295	    -19.02077019	    -14.27208015	    -16.77573162	    -11.22909284	     13.60416677	     19.07391739	    -26.00000000	     19.37166139	     43.26043331	     25.40945319	   -176.64039725
      0.32000000	      0.51728761	     -6.04339790	    -11.28974677	     -0.02446815	      0.00894695	      0.01478384	    -18.95754429	    -14.18591396	    -16.63691653	    -11.18078865	     13.67858054	     19.00182164	    -26.00000000	     19.32736234	     43.49934051	     25.47131976	   -176.55503096
      0.34000000	      0.51728761	     -6.05468746	    -11.28891176	     -0.02485026	      0.00902166	      0.01485616	    -18.93223816	    -14.21101260	    -16.58906985	    -11.19658395	     13.67219588	     19.01019536	    -26.00000000	     19.35775142	     43.47773809	     25.45654985	   -176.52974243
      0.36000000	      0.51728761	     -6.04959952	    -11.22323643	     -0.02539328	      0.00906517	      0.01483248	    -18.82672521	    -14.17461749	    -16.45500718	    -11.14803802	     13.60810433	     18.98508718	    -26.00000000	     19.43252424	     43.19332000	     25.41981788	   -176.51430079
      0.38000000	      0.51728761	     -6.01536394	    -11.27549375	     -0.02562863	      0.00904158	      0.01492113	    -18.89406340	    -14.18781809	    -16.52407044	    -11.17875154	     13.67735555	     18.98968846	    -26.00000000	     19.37306943	     43.50560872	     25.45383832	   -176.54986531
      0.40000000	      0.51728761	     -5.98332588	    -11.28705937	     -0.02594450	      0.00904974	      0.01495720	    -18.88559984	    -14.18126148	    -16.50757040	    -11.17468380	     13.68217421	     18.98361662	    -26.00000000	     19.37207243	     43.49615707	     25.45428922	   -176.56547950
      0.42000000	      0.51728761	     -5.94333554	    -11.29522602	     -0.02625516	      0.00907083	      0.01499788	    -18.88684805	    -14.18902220	    -16.51348758	    -11.17831312	     13.67351074	     18.98963180	    -26.00000000	     19.37031171	     43.49963947	     25.43942503	   -176.61923767
      0.44000000	      0.51728761	     -5.91844911	    -11.33031247	     -0.02649584	      0.00907209	      0.01502990	    -18.87703038	    -14.20131068	    -16.49038889	    -11.18781259	     13.67675005	     18.99278809	    -26.00000000	     19.36369335	     43.44918739	     25.43518635	   -176.60748162
      0.46000000	      0.51728761	     -5.86964696	    -11.34685456	     -0.02675533	      0.00903993	      0.01505187	    -18.87410120	    -14.17660180	    -16.49330093	    -11.16883077	     13.67499139	     18.98060063	    -26.00000000	     19.33343221	     43.37078095	     25.44215089	   -176.62631101
      0.48000000	      0.51728761	     -5.82086496	    -11.35486479	     -0.02696901	      0.00904656	      0.01506372	    -18.89958652	    -14.17210971	    -16.54117613	    -11.16634902	     13.67335804	     18.98409825	    -26.00000000	     19.28614174	     43.37548313	     25.36915016	   -176.64397598
      0.50000000	      0.51728761	     -5.80055149	    -11.39219848	     -0.02713767	      0.00901771	      0.01510328	    -18.91374336	    -14.18603999	    -16.56384782	    -11.17679713	     13.67113896	     18.99476962	    -26.00000000	     19.24689253	     43.34709937	     25.37528713	   -176.64067583
      0.52000000	      0.51728761	     -5.80479702	    -11.41917037	     -0.02727472	      0.00896216	      0.01514317	    -18.90583068	    -14.18088765	    -16.56783321	    -11.16643848	     13.64681693	     18.99589442	    -26.00000000	     19.23657278	     43.30991551	     25.44064836	   -176.64185191
      0.54000000	      0.51728761	     -5.79163322	    -11.45965670	     -0.02743215	      0.00900435	      0.01514358	    -18.91617063	    -14.25323960	    -16.59644224	    -11.20923818	     13.60158123	     19.04351217	    -26.00000000	     19.24450121	     43.05559645	     25.37701606	   -176.57826977
      0.56000000	      0.51728761	     -5.79275314	    -11.47198215	     -0.02761472	      0.00895542	      0.01508840	    -18.87831210	    -14.26154452	    -16.57365890	    -11.19598063	     13.53244279	     19.05553450	    -26.00000000	     19.28376726	     42.74888106	     25.39482137	   -176.50214319
      0.58000000	      0.51728761	     -5.76677152	    -11.48785626	     -0.02774258	      0.00892624	      0.01512561	    -18.98356053	    -14.30386567	    -16.75762845	    -11.22951185	     13.51998932	     19.10104551	    -26.00000000	     19.22018356	     42.81330590	     25.34395556	   -176.37496970
      0.60000000	      0.51728761	     -5.74908936	    -11.50419745	     -0.02788556	      0.00891112	      0.01511031	    -19.04677391	    -14.36848571	    -16.89942553	    -11.26295985	     13.45002360	     19.16177299	    -26.00000000	     19.25216399	     42.60085529	     25.33991983	   -176.21766980
      0.62000000	      0.51728761	     -5.77602102	    -11.51174693	     -0.02803222	      0.00889248	      0.01507113	    -19.07804445	    -14.43050065	    -16.98213511	    -11.29396707	     13.38426579	     19.21363247	    -26.00000000	     19.31876131	     42.40118385	     25.32566604	   -176.05301762
